<svg version="1.1" viewBox="0.0 0.0 1600.0 1576.4698162729658" fill="none" stroke="none" stroke-linecap="square" stroke-miterlimit="10" xmlns:xlink="http://www.w3.org/1999/xlink" xmlns="http://www.w3.org/2000/svg"><clipPath id="p.0"><path d="m0 0l1600.0 0l0 1576.4698l-1600.0 0l0 -1576.4698z" clip-rule="nonzero"/></clipPath><g clip-path="url(#p.0)"><path fill="#000000" fill-opacity="0.0" d="m0 0l1600.0 0l0 1576.4698l-1600.0 0z" fill-rule="evenodd"/><path fill="#cc4125" d="m629.5171 160.36482l19.929077 0l0 -78.78739l39.858276 0l0 78.78739l19.929138 0l-39.858276 39.858276z" fill-rule="evenodd"/><path stroke="#000000" stroke-width="1.0" stroke-linejoin="round" stroke-linecap="butt" d="m629.5171 160.36482l19.929077 0l0 -78.78739l39.858276 0l0 78.78739l19.929138 0l-39.858276 39.858276z" fill-rule="evenodd"/><path fill="#93c47d" d="m751.19684 160.36482l19.929138 0l0 -78.78739l39.858276 0l0 78.78739l19.929138 0l-39.858276 39.858276z" fill-rule="evenodd"/><path stroke="#000000" stroke-width="1.0" stroke-linejoin="round" stroke-linecap="butt" d="m751.19684 160.36482l19.929138 0l0 -78.78739l39.858276 0l0 78.78739l19.929138 0l-39.858276 39.858276z" fill-rule="evenodd"/><path fill="#6d9eeb" d="m872.87665 160.36482l19.929138 0l0 -78.78739l39.858276 0l0 78.78739l19.929138 0l-39.858276 39.858276z" fill-rule="evenodd"/><path stroke="#000000" stroke-width="1.0" stroke-linejoin="round" stroke-linecap="butt" d="m872.87665 160.36482l19.929138 0l0 -78.78739l39.858276 0l0 78.78739l19.929138 0l-39.858276 39.858276z" fill-rule="evenodd"/><path fill="#000000" fill-opacity="0.0" d="m638.4619 13.703412l61.826782 0l0 67.874016l-61.826782 0z" fill-rule="evenodd"/><path fill="#000000" d="m658.7816 61.10341l0 -29.09375l11.46875 0q3.296875 0 5.625 1.171875q2.34375 1.171875 3.578125 3.3125q1.234375 2.140625 1.234375 5.015625q0 2.90625 -1.25 4.984375q-1.25 2.078125 -3.625 3.1875q-2.359375 1.109375 -5.71875 1.109375l-7.671875 0l0 -4.9375l6.6875 0q1.75 0 2.921875 -0.484375q1.171875 -0.484375 1.734375 -1.453125q0.578125 -0.96875 0.578125 -2.40625q0 -1.4375 -0.578125 -2.4375q-0.5625 -1.0 -1.734375 -1.515625q-1.171875 -0.515625 -2.953125 -0.515625l-4.15625 0l0 24.0625l-6.140625 0zm15.703125 -13.234375l7.234375 13.234375l-6.796875 0l-7.0625 -13.234375l6.625 0z" fill-rule="nonzero"/><path fill="#000000" fill-opacity="0.0" d="m760.1417 13.703412l61.826782 0l0 67.874016l-61.826782 0z" fill-rule="evenodd"/><path fill="#000000" d="m797.6546 41.41591q-0.296875 -1.03125 -0.84375 -1.828125q-0.53125 -0.8125 -1.3125 -1.375q-0.765625 -0.5625 -1.75 -0.859375q-0.984375 -0.296875 -2.1875 -0.296875q-2.21875 0 -3.90625 1.109375q-1.6875 1.109375 -2.625 3.21875q-0.9375 2.109375 -0.9375 5.140625q0 3.046875 0.921875 5.1875q0.921875 2.125 2.609375 3.234375q1.703125 1.109375 4.0 1.109375q2.09375 0 3.578125 -0.734375q1.484375 -0.75 2.265625 -2.109375q0.796875 -1.375 0.796875 -3.234375l1.25 0.1875l-7.5 0l0 -4.625l12.171875 0l0 3.65625q0 3.84375 -1.625 6.59375q-1.625 2.734375 -4.46875 4.21875q-2.828125 1.484375 -6.5 1.484375q-4.09375 0 -7.1875 -1.796875q-3.09375 -1.8125 -4.828125 -5.15625q-1.71875 -3.359375 -1.71875 -7.953125q0 -3.53125 1.03125 -6.3125q1.03125 -2.78125 2.890625 -4.703125q1.859375 -1.9375 4.328125 -2.9375q2.46875 -1.0156231 5.359375 -1.0156231q2.46875 0 4.59375 0.7187481q2.140625 0.71875 3.796875 2.03125q1.65625 1.296875 2.703125 3.09375q1.046875 1.796875 1.34375 3.953125l-6.25 0z" fill-rule="nonzero"/><path fill="#000000" fill-opacity="0.0" d="m881.82153 13.703412l61.826782 0l0 67.874016l-61.826782 0z" fill-rule="evenodd"/><path fill="#000000" d="m902.0489 61.10341l0 -29.09375l11.640625 0q3.21875 0 5.359375 0.953125q2.140625 0.953125 3.21875 2.640625q1.078125 1.671875 1.078125 3.859375q0 1.71875 -0.6875 3.0q-0.671875 1.28125 -1.859375 2.109375q-1.1875 0.8125 -2.703125 1.140625l0 0.296875q1.65625 0.0625 3.109375 0.9375q1.46875 0.859375 2.375 2.421875q0.90625 1.546875 0.90625 3.6875q0 2.328125 -1.140625 4.140625q-1.140625 1.796875 -3.375 2.859375q-2.234375 1.046875 -5.5 1.046875l-12.421875 0zm6.140625 -5.03125l5.015625 0q2.578125 0 3.75 -0.984375q1.1875 -0.984375 1.1875 -2.640625q0 -1.203125 -0.59375 -2.125q-0.578125 -0.921875 -1.65625 -1.4375q-1.0625 -0.53125 -2.546875 -0.53125l-5.15625 0l0 7.71875zm0 -11.890625l4.5625 0q1.265625 0 2.25 -0.4375q1.0 -0.453125 1.5625 -1.265625q0.578125 -0.828125 0.578125 -1.984375q0 -1.578125 -1.125 -2.546875q-1.109375 -0.96875 -3.140625 -0.96875l-4.6875 0l0 7.203125z" fill-rule="nonzero"/><path fill="#d9d2e9" d="m495.03937 200.2231l609.9212 0l0 100.12599l-609.9212 0z" fill-rule="evenodd"/><path stroke="#000000" stroke-width="4.0" stroke-linejoin="round" stroke-linecap="butt" d="m495.03937 200.2231l609.9212 0l0 100.12599l-609.9212 0z" fill-rule="evenodd"/><path fill="#000000" d="m583.319 244.67859l-7.453125 0q-0.203125 -1.453125 -0.84375 -2.578125q-0.625 -1.140625 -1.625 -1.9375q-0.984375 -0.796875 -2.265625 -1.21875q-1.28125 -0.4375 -2.78125 -0.4375q-2.71875 0 -4.734375 1.34375q-2.0 1.328125 -3.109375 3.890625q-1.109375 2.546875 -1.109375 6.171875q0 3.734375 1.109375 6.28125q1.125 2.53125 3.125 3.828125q2.015625 1.296875 4.65625 1.296875q1.484375 0 2.75 -0.390625q1.28125 -0.390625 2.265625 -1.15625q0.984375 -0.765625 1.640625 -1.84375q0.65625 -1.09375 0.921875 -2.5l7.453125 0.046875q-0.28125 2.390625 -1.4375 4.625q-1.140625 2.21875 -3.078125 3.96875q-1.9375 1.75 -4.609375 2.765625q-2.65625 1.015625 -6.015625 1.015625q-4.671875 0 -8.34375 -2.109375q-3.671875 -2.125 -5.796875 -6.125q-2.125 -4.015625 -2.125 -9.703125q0 -5.71875 2.140625 -9.71875q2.15625 -4.0 5.828125 -6.109375q3.6875 -2.109375 8.296875 -2.109375q3.03125 0 5.625 0.859375q2.609375 0.84375 4.609375 2.484375q2.015625 1.625 3.28125 3.984375q1.28125 2.34375 1.625 5.375zm17.008606 23.203125q-3.984375 0 -6.875 -1.6875q-2.875 -1.703125 -4.453125 -4.75q-1.5625 -3.046875 -1.5625 -7.0625q0 -4.0625 1.5625 -7.09375q1.578125 -3.046875 4.453125 -4.734375q2.890625 -1.703125 6.875 -1.703125q3.96875 0 6.859375 1.703125q2.890625 1.6875 4.453125 4.734375q1.5625 3.03125 1.5625 7.09375q0 4.015625 -1.5625 7.0625q-1.5625 3.046875 -4.453125 4.75q-2.890625 1.6875 -6.859375 1.6875zm0.03125 -5.625q1.796875 0 3.0 -1.03125q1.21875 -1.03125 1.84375 -2.8125q0.625 -1.796875 0.625 -4.09375q0 -2.28125 -0.625 -4.0625q-0.625 -1.796875 -1.84375 -2.828125q-1.203125 -1.046875 -3.0 -1.046875q-1.828125 0 -3.0625 1.046875q-1.234375 1.03125 -1.859375 2.828125q-0.625 1.78125 -0.625 4.0625q0 2.296875 0.625 4.09375q0.625 1.78125 1.859375 2.8125q1.234375 1.03125 3.0625 1.03125zm24.845276 -29.796875l0 34.90625l-7.265625 0l0 -34.90625l7.265625 0zm17.634949 35.421875q-3.984375 0 -6.875 -1.6875q-2.875 -1.703125 -4.453125 -4.75q-1.5625 -3.046875 -1.5625 -7.0625q0 -4.0625 1.5625 -7.09375q1.578125 -3.046875 4.453125 -4.734375q2.890625 -1.703125 6.875 -1.703125q3.96875 0 6.859375 1.703125q2.890625 1.6875 4.453125 4.734375q1.5625 3.03125 1.5625 7.09375q0 4.015625 -1.5625 7.0625q-1.5625 3.046875 -4.453125 4.75q-2.890625 1.6875 -6.859375 1.6875zm0.03125 -5.625q1.796875 0 3.0 -1.03125q1.21875 -1.03125 1.84375 -2.8125q0.625 -1.796875 0.625 -4.09375q0 -2.28125 -0.625 -4.0625q-0.625 -1.796875 -1.84375 -2.828125q-1.203125 -1.046875 -3.0 -1.046875q-1.828125 0 -3.0625 1.046875q-1.234375 1.03125 -1.859375 2.828125q-0.625 1.78125 -0.625 4.0625q0 2.296875 0.625 4.09375q0.625 1.78125 1.859375 2.8125q1.234375 1.03125 3.0625 1.03125zm17.57965 5.109375l0 -26.1875l7.046875 0l0 4.578125l0.265625 0q0.71875 -2.4375 2.40625 -3.6875q1.6875 -1.265625 3.890625 -1.265625q0.546875 0 1.171875 0.078125q0.640625 0.0625 1.109375 0.1875l0 6.4375q-0.515625 -0.15625 -1.421875 -0.265625q-0.890625 -0.125 -1.640625 -0.125q-1.609375 0 -2.859375 0.6875q-1.25 0.6875 -1.984375 1.921875q-0.71875 1.21875 -0.71875 2.828125l0 14.8125l-7.265625 0zm29.562561 -28.828125l0 -6.078125l28.671875 0l0 6.078125l-10.6875 0l0 28.828125l-7.296875 0l0 -28.828125l-10.6875 0zm30.539856 28.828125l0 -26.1875l7.046875 0l0 4.578125l0.265625 0q0.71875 -2.4375 2.40625 -3.6875q1.6875 -1.265625 3.890625 -1.265625q0.546875 0 1.171875 0.078125q0.640625 0.0625 1.109375 0.1875l0 6.4375q-0.515625 -0.15625 -1.421875 -0.265625q-0.890625 -0.125 -1.640625 -0.125q-1.609375 0 -2.859375 0.6875q-1.25 0.6875 -1.984375 1.921875q-0.71875 1.21875 -0.71875 2.828125l0 14.8125l-7.265625 0zm26.355164 0.5q-2.5 0 -4.46875 -0.875q-1.953125 -0.890625 -3.09375 -2.609375q-1.125 -1.734375 -1.125 -4.328125q0 -2.1875 0.796875 -3.65625q0.796875 -1.484375 2.171875 -2.390625q1.390625 -0.90625 3.15625 -1.359375q1.765625 -0.46875 3.703125 -0.65625q2.296875 -0.234375 3.6875 -0.453125q1.390625 -0.21875 2.015625 -0.640625q0.640625 -0.421875 0.640625 -1.265625l0 -0.09375q0 -1.625 -1.015625 -2.5q-1.015625 -0.890625 -2.875 -0.890625q-1.953125 0 -3.109375 0.859375q-1.15625 0.859375 -1.53125 2.15625l-6.71875 -0.546875q0.515625 -2.390625 2.015625 -4.125q1.5 -1.75 3.875 -2.6875q2.375 -0.953125 5.515625 -0.953125q2.171875 0 4.171875 0.515625q2.015625 0.5 3.5625 1.578125q1.5625 1.0625 2.46875 2.75q0.90625 1.671875 0.90625 4.015625l0 17.65625l-6.890625 0l0 -3.625l-0.203125 0q-0.625 1.21875 -1.6875 2.15625q-1.0625 0.921875 -2.546875 1.453125q-1.46875 0.515625 -3.421875 0.515625zm2.078125 -5.015625q1.609375 0 2.828125 -0.640625q1.234375 -0.640625 1.921875 -1.734375q0.703125 -1.09375 0.703125 -2.46875l0 -2.78125q-0.328125 0.21875 -0.921875 0.40625q-0.59375 0.171875 -1.328125 0.328125q-0.71875 0.140625 -1.453125 0.25q-0.734375 0.109375 -1.328125 0.203125q-1.28125 0.1875 -2.234375 0.59375q-0.953125 0.40625 -1.484375 1.09375q-0.53125 0.6875 -0.53125 1.71875q0 1.484375 1.078125 2.265625q1.078125 0.765625 2.75 0.765625zm25.571106 -10.625l0 15.140625l-7.265625 0l0 -26.1875l6.921875 0l0 4.625l0.3125 0q0.875 -2.28125 2.90625 -3.609375q2.046875 -1.34375 4.96875 -1.34375q2.734375 0 4.75 1.1875q2.03125 1.1875 3.15625 3.40625q1.125 2.203125 1.125 5.25l0 16.671875l-7.265625 0l0 -15.375q0.03125 -2.40625 -1.21875 -3.75q-1.25 -1.359375 -3.421875 -1.359375q-1.46875 0 -2.59375 0.625q-1.109375 0.625 -1.734375 1.828125q-0.625 1.203125 -0.640625 2.890625zm44.37787 -3.578125l-6.65625 0.40625q-0.171875 -0.84375 -0.734375 -1.53125q-0.5625 -0.703125 -1.46875 -1.109375q-0.90625 -0.421875 -2.171875 -0.421875q-1.6875 0 -2.859375 0.71875q-1.15625 0.703125 -1.15625 1.875q0 0.9375 0.75 1.59375q0.75 0.640625 2.578125 1.03125l4.734375 0.953125q3.828125 0.78125 5.703125 2.53125q1.875 1.734375 1.875 4.5625q0 2.5625 -1.515625 4.515625q-1.5 1.9375 -4.125 3.03125q-2.609375 1.078125 -6.015625 1.078125q-5.203125 0 -8.28125 -2.171875q-3.078125 -2.171875 -3.609375 -5.921875l7.140625 -0.375q0.328125 1.578125 1.5625 2.40625q1.25 0.828125 3.203125 0.828125q1.90625 0 3.0625 -0.734375q1.171875 -0.75 1.1875 -1.921875q-0.015625 -1.0 -0.828125 -1.625q-0.8125 -0.640625 -2.515625 -0.984375l-4.546875 -0.90625q-3.828125 -0.765625 -5.703125 -2.65625q-1.859375 -1.890625 -1.859375 -4.828125q0 -2.515625 1.375 -4.34375q1.375 -1.828125 3.859375 -2.8125q2.5 -0.984375 5.859375 -0.984375q4.96875 0 7.8125 2.09375q2.859375 2.09375 3.34375 5.703125zm19.262878 -7.46875l0 5.453125l-16.171875 0l0 -5.453125l16.171875 0zm-12.46875 26.1875l0 -28.078125q0 -2.84375 1.109375 -4.71875q1.125 -1.875 3.0625 -2.8125q1.953125 -0.9375 4.421875 -0.9375q1.671875 0 3.0625 0.265625q1.390625 0.25 2.0625 0.453125l-1.296875 5.453125q-0.421875 -0.140625 -1.046875 -0.25q-0.625 -0.125 -1.265625 -0.125q-1.609375 0 -2.234375 0.75q-0.625 0.734375 -0.625 2.0625l0 27.9375l-7.25 0zm27.809692 0.515625q-3.984375 0 -6.875 -1.6875q-2.875 -1.703125 -4.453125 -4.75q-1.5625 -3.046875 -1.5625 -7.0625q0 -4.0625 1.5625 -7.09375q1.578125 -3.046875 4.453125 -4.734375q2.890625 -1.703125 6.875 -1.703125q3.96875 0 6.859375 1.703125q2.890625 1.6875 4.453125 4.734375q1.5625 3.03125 1.5625 7.09375q0 4.015625 -1.5625 7.0625q-1.5625 3.046875 -4.453125 4.75q-2.890625 1.6875 -6.859375 1.6875zm0.03125 -5.625q1.796875 0 3.0 -1.03125q1.21875 -1.03125 1.84375 -2.8125q0.625 -1.796875 0.625 -4.09375q0 -2.28125 -0.625 -4.0625q-0.625 -1.796875 -1.84375 -2.828125q-1.203125 -1.046875 -3.0 -1.046875q-1.828125 0 -3.0625 1.046875q-1.234375 1.03125 -1.859375 2.828125q-0.625 1.78125 -0.625 4.0625q0 2.296875 0.625 4.09375q0.625 1.78125 1.859375 2.8125q1.234375 1.03125 3.0625 1.03125zm17.57965 5.109375l0 -26.1875l7.046875 0l0 4.578125l0.265625 0q0.71875 -2.4375 2.40625 -3.6875q1.6875 -1.265625 3.890625 -1.265625q0.546875 0 1.171875 0.078125q0.640625 0.0625 1.109375 0.1875l0 6.4375q-0.515625 -0.15625 -1.421875 -0.265625q-0.890625 -0.125 -1.640625 -0.125q-1.609375 0 -2.859375 0.6875q-1.25 0.6875 -1.984375 1.921875q-0.71875 1.21875 -0.71875 2.828125l0 14.8125l-7.265625 0zm19.619324 0l0 -26.1875l6.921875 0l0 4.625l0.3125 0q0.8125 -2.296875 2.71875 -3.625q1.921875 -1.328125 4.578125 -1.328125q2.6875 0 4.578125 1.34375q1.890625 1.328125 2.53125 3.609375l0.265625 0q0.8125 -2.25 2.90625 -3.59375q2.109375 -1.359375 4.984375 -1.359375q3.671875 0 5.953125 2.328125q2.296875 2.3125 2.296875 6.578125l0 17.609375l-7.234375 0l0 -16.171875q0 -2.1875 -1.171875 -3.28125q-1.15625 -1.09375 -2.890625 -1.09375q-1.96875 0 -3.078125 1.265625q-1.109375 1.25 -1.109375 3.296875l0 15.984375l-7.046875 0l0 -16.328125q0 -1.921875 -1.109375 -3.0625q-1.09375 -1.15625 -2.875 -1.15625q-1.21875 0 -2.1875 0.609375q-0.953125 0.609375 -1.515625 1.6875q-0.5625 1.078125 -0.5625 2.53125l0 15.71875l-7.265625 0zm51.241577 0.5q-2.5 0 -4.46875 -0.875q-1.953125 -0.890625 -3.09375 -2.609375q-1.125 -1.734375 -1.125 -4.328125q0 -2.1875 0.796875 -3.65625q0.796875 -1.484375 2.171875 -2.390625q1.390625 -0.90625 3.15625 -1.359375q1.765625 -0.46875 3.703125 -0.65625q2.296875 -0.234375 3.6875 -0.453125q1.390625 -0.21875 2.015625 -0.640625q0.640625 -0.421875 0.640625 -1.265625l0 -0.09375q0 -1.625 -1.015625 -2.5q-1.015625 -0.890625 -2.875 -0.890625q-1.953125 0 -3.109375 0.859375q-1.15625 0.859375 -1.53125 2.15625l-6.71875 -0.546875q0.515625 -2.390625 2.015625 -4.125q1.5 -1.75 3.875 -2.6875q2.375 -0.953125 5.515625 -0.953125q2.171875 0 4.171875 0.515625q2.015625 0.5 3.5625 1.578125q1.5625 1.0625 2.46875 2.75q0.90625 1.671875 0.90625 4.015625l0 17.65625l-6.890625 0l0 -3.625l-0.203125 0q-0.625 1.21875 -1.6875 2.15625q-1.0625 0.921875 -2.546875 1.453125q-1.46875 0.515625 -3.421875 0.515625zm2.078125 -5.015625q1.609375 0 2.828125 -0.640625q1.234375 -0.640625 1.921875 -1.734375q0.703125 -1.09375 0.703125 -2.46875l0 -2.78125q-0.328125 0.21875 -0.921875 0.40625q-0.59375 0.171875 -1.328125 0.328125q-0.71875 0.140625 -1.453125 0.25q-0.734375 0.109375 -1.328125 0.203125q-1.28125 0.1875 -2.234375 0.59375q-0.953125 0.40625 -1.484375 1.09375q-0.53125 0.6875 -0.53125 1.71875q0 1.484375 1.078125 2.265625q1.078125 0.765625 2.75 0.765625zm32.24298 -21.671875l0 5.453125l-15.765625 0l0 -5.453125l15.765625 0zm-12.1875 -6.265625l7.25 0l0 24.40625q0 1.0 0.3125 1.5625q0.3125 0.546875 0.859375 0.78125q0.5625 0.21875 1.296875 0.21875q0.5 0 1.015625 -0.09375q0.515625 -0.09375 0.78125 -0.15625l1.140625 5.40625q-0.546875 0.171875 -1.53125 0.40625q-0.984375 0.234375 -2.40625 0.28125q-2.625 0.09375 -4.59375 -0.703125q-1.96875 -0.796875 -3.0625 -2.484375q-1.078125 -1.6875 -1.0625 -4.265625l0 -25.359375zm16.897766 32.453125l0 -26.1875l7.265625 0l0 26.1875l-7.265625 0zm3.65625 -29.5625q-1.625 0 -2.78125 -1.078125q-1.140625 -1.078125 -1.140625 -2.59375q0 -1.5 1.140625 -2.578125q1.15625 -1.09375 2.78125 -1.09375q1.625 0 2.765625 1.09375q1.15625 1.078125 1.15625 2.578125q0 1.515625 -1.15625 2.59375q-1.140625 1.078125 -2.765625 1.078125zm21.244385 30.078125q-3.984375 0 -6.875 -1.6875q-2.875 -1.703125 -4.453125 -4.75q-1.5625 -3.046875 -1.5625 -7.0625q0 -4.0625 1.5625 -7.09375q1.578125 -3.046875 4.453125 -4.734375q2.890625 -1.703125 6.875 -1.703125q3.968689 0 6.859314 1.703125q2.890625 1.6875 4.453125 4.734375q1.5625 3.03125 1.5625 7.09375q0 4.015625 -1.5625 7.0625q-1.5625 3.046875 -4.453125 4.75q-2.890625 1.6875 -6.859314 1.6875zm0.03125 -5.625q1.796814 0 2.999939 -1.03125q1.21875 -1.03125 1.84375 -2.8125q0.625 -1.796875 0.625 -4.09375q0 -2.28125 -0.625 -4.0625q-0.625 -1.796875 -1.84375 -2.828125q-1.203125 -1.046875 -2.999939 -1.046875q-1.828125 0 -3.0625 1.046875q-1.234375 1.03125 -1.859375 2.828125q-0.625 1.78125 -0.625 4.0625q0 2.296875 0.625 4.09375q0.625 1.78125 1.859375 2.8125q1.234375 1.03125 3.0625 1.03125zm24.845215 -10.03125l0 15.140625l-7.265625 0l0 -26.1875l6.921875 0l0 4.625l0.3125 0q0.875 -2.28125 2.90625 -3.609375q2.046875 -1.34375 4.96875 -1.34375q2.734375 0 4.75 1.1875q2.03125 1.1875 3.15625 3.40625q1.125 2.203125 1.125 5.25l0 16.671875l-7.265625 0l0 -15.375q0.03125 -2.40625 -1.21875 -3.75q-1.25 -1.359375 -3.421875 -1.359375q-1.46875 0 -2.59375 0.625q-1.109375 0.625 -1.734375 1.828125q-0.625 1.203125 -0.640625 2.890625z" fill-rule="nonzero"/><path fill="#b7b7b7" d="m629.5171 534.34906l21.740112 0l0 -233.99997l43.480347 0l0 233.99997l21.740112 0l-43.480286 43.480347z" fill-rule="evenodd"/><path stroke="#000000" stroke-width="1.0" stroke-linejoin="round" stroke-linecap="butt" d="m629.5171 534.34906l21.740112 0l0 -233.99997l43.480347 0l0 233.99997l21.740112 0l-43.480286 43.480347z" fill-rule="evenodd"/><path fill="#000000" d="m661.0853 508.39548l6.890625 0l6.625 12.5312805l0.28125 0l6.640625 -12.5312805l6.890625 0l-10.609375 18.81253l0 10.28125l-6.109375 0l0 -10.28125l-10.609375 -18.81253z" fill-rule="nonzero"/><path fill="#b7b7b7" d="m751.19684 362.18372l19.929138 0l0 -60.2677l39.858276 0l0 60.2677l19.929138 0l-39.858276 39.858276z" fill-rule="evenodd"/><path stroke="#000000" stroke-width="1.0" stroke-linejoin="round" stroke-linecap="butt" d="m751.19684 362.18372l19.929138 0l0 -60.2677l39.858276 0l0 60.2677l19.929138 0l-39.858276 39.858276z" fill-rule="evenodd"/><path fill="#b7b7b7" d="m872.87665 362.18372l19.929138 0l0 -60.2677l39.858276 0l0 60.2677l19.929138 0l-39.858276 39.858276z" fill-rule="evenodd"/><path stroke="#000000" stroke-width="1.0" stroke-linejoin="round" stroke-linecap="butt" d="m872.87665 362.18372l19.929138 0l0 -60.2677l39.858276 0l0 60.2677l19.929138 0l-39.858276 39.858276z" fill-rule="evenodd"/><path fill="#d9d2e9" d="m730.1155 403.60892l245.44885 0l0 67.87402l-245.44885 0z" fill-rule="evenodd"/><path stroke="#000000" stroke-width="4.0" stroke-linejoin="round" stroke-linecap="butt" d="m730.1155 403.60892l245.44885 0l0 67.87402l-245.44885 0z" fill-rule="evenodd"/><path fill="#000000" d="m751.0216 448.48593l-7.90625 0l0 -22.296875l7.96875 0q3.359375 0 5.78125 1.34375q2.4375 1.328125 3.75 3.828125q1.3125 2.484375 1.3125 5.953125q0 3.484375 -1.3125 6.0q-1.3125 2.5 -3.765625 3.84375q-2.4375 1.328125 -5.828125 1.328125zm-3.1875 -4.03125l2.984375 0q2.09375 0 3.515625 -0.75q1.4375 -0.75 2.15625 -2.3125q0.734375 -1.578125 0.734375 -4.078125q0 -2.46875 -0.734375 -4.03125q-0.71875 -1.578125 -2.140625 -2.3125q-1.421875 -0.734375 -3.515625 -0.734375l-3.0 0l0 14.21875zm25.04541 4.359375q-2.53125 0 -4.390625 -1.078125q-1.84375 -1.09375 -2.84375 -3.03125q-1.0 -1.9375 -1.0 -4.515625q0 -2.59375 1.0 -4.53125q1.0 -1.9375 2.84375 -3.015625q1.859375 -1.09375 4.390625 -1.09375q2.53125 0 4.375 1.09375q1.859375 1.078125 2.859375 3.015625q1.0 1.9375 1.0 4.53125q0 2.578125 -1.0 4.515625q-1.0 1.9375 -2.859375 3.03125q-1.84375 1.078125 -4.375 1.078125zm0.015625 -3.59375q1.15625 0 1.921875 -0.65625q0.78125 -0.65625 1.171875 -1.796875q0.40625 -1.15625 0.40625 -2.609375q0 -1.453125 -0.40625 -2.59375q-0.390625 -1.15625 -1.171875 -1.8125q-0.765625 -0.671875 -1.921875 -0.671875q-1.15625 0 -1.953125 0.671875q-0.78125 0.65625 -1.1875 1.8125q-0.390625 1.140625 -0.390625 2.59375q0 1.453125 0.390625 2.609375q0.40625 1.140625 1.1875 1.796875q0.796875 0.65625 1.953125 0.65625zm14.132324 3.265625l-4.5625 -16.71875l4.703125 0l2.578125 11.234375l0.15625 0l2.703125 -11.234375l4.609375 0l2.734375 11.171875l0.140625 0l2.546875 -11.171875l4.6875 0l-4.546875 16.71875l-4.90625 0l-2.875 -10.515625l-0.203125 0l-2.875 10.515625l-4.890625 0zm27.390198 -9.671875l0 9.671875l-4.640625 0l0 -16.71875l4.421875 0l0 2.953125l0.203125 0q0.546875 -1.46875 1.859375 -2.3125q1.3125 -0.859375 3.171875 -0.859375q1.734375 0 3.03125 0.765625q1.296875 0.75 2.015625 2.171875q0.71875 1.40625 0.71875 3.359375l0 10.640625l-4.640625 0l0 -9.8125q0.015625 -1.546875 -0.78125 -2.40625q-0.796875 -0.859375 -2.1875 -0.859375q-0.9375 0 -1.65625 0.40625q-0.703125 0.390625 -1.109375 1.15625q-0.390625 0.765625 -0.40625 1.84375zm28.343384 -2.28125l-4.25 0.265625q-0.109375 -0.546875 -0.46875 -0.984375q-0.359375 -0.453125 -0.9375 -0.71875q-0.578125 -0.265625 -1.390625 -0.265625q-1.078125 0 -1.828125 0.453125q-0.734375 0.453125 -0.734375 1.203125q0 0.609375 0.484375 1.015625q0.484375 0.40625 1.640625 0.65625l3.03125 0.625q2.4375 0.5 3.625 1.609375q1.203125 1.109375 1.203125 2.90625q0 1.65625 -0.96875 2.890625q-0.953125 1.234375 -2.625 1.9375q-1.671875 0.6875 -3.84375 0.6875q-3.328125 0 -5.296875 -1.390625q-1.953125 -1.390625 -2.296875 -3.78125l4.5625 -0.234375q0.203125 1.0 1.0 1.53125q0.796875 0.53125 2.03125 0.53125q1.21875 0 1.96875 -0.46875q0.75 -0.484375 0.765625 -1.234375q-0.015625 -0.625 -0.546875 -1.03125q-0.515625 -0.40625 -1.609375 -0.625l-2.890625 -0.578125q-2.453125 -0.5 -3.640625 -1.703125q-1.1875 -1.203125 -1.1875 -3.078125q0 -1.609375 0.875 -2.765625q0.875 -1.171875 2.46875 -1.796875q1.59375 -0.640625 3.734375 -0.640625q3.171875 0 4.984375 1.34375q1.828125 1.328125 2.140625 3.640625zm8.081726 12.265625q-1.609375 0 -2.859375 -0.5625q-1.25 -0.5625 -1.984375 -1.65625q-0.71875 -1.109375 -0.71875 -2.765625q0 -1.390625 0.515625 -2.328125q0.515625 -0.953125 1.390625 -1.53125q0.890625 -0.578125 2.015625 -0.875q1.125 -0.296875 2.359375 -0.40625q1.46875 -0.15625 2.359375 -0.296875q0.890625 -0.140625 1.28125 -0.40625q0.40625 -0.265625 0.40625 -0.8125l0 -0.0625q0 -1.03125 -0.640625 -1.59375q-0.640625 -0.5625 -1.828125 -0.5625q-1.265625 0 -2.0 0.546875q-0.734375 0.546875 -0.984375 1.375l-4.28125 -0.34375q0.328125 -1.53125 1.28125 -2.640625q0.953125 -1.125 2.46875 -1.71875q1.53125 -0.609375 3.53125 -0.609375q1.390625 0 2.671875 0.328125q1.28125 0.328125 2.265625 1.015625q1.0 0.671875 1.578125 1.75q0.578125 1.078125 0.578125 2.5625l0 11.28125l-4.390625 0l0 -2.3125l-0.140625 0q-0.390625 0.78125 -1.078125 1.375q-0.671875 0.59375 -1.625 0.921875q-0.9375 0.328125 -2.171875 0.328125zm1.328125 -3.203125q1.015625 0 1.796875 -0.40625q0.78125 -0.40625 1.234375 -1.09375q0.453125 -0.703125 0.453125 -1.59375l0 -1.765625q-0.21875 0.140625 -0.59375 0.265625q-0.375 0.109375 -0.84375 0.203125q-0.46875 0.078125 -0.9375 0.15625q-0.46875 0.078125 -0.859375 0.125q-0.8125 0.125 -1.421875 0.390625q-0.609375 0.25 -0.953125 0.703125q-0.328125 0.4375 -0.328125 1.078125q0 0.953125 0.6875 1.453125q0.6875 0.484375 1.765625 0.484375zm11.679077 2.890625l0 -16.71875l4.421875 0l0 2.953125l0.203125 0q0.515625 -1.46875 1.734375 -2.3125q1.21875 -0.859375 2.921875 -0.859375q1.71875 0 2.921875 0.859375q1.21875 0.84375 1.625 2.3125l0.171875 0q0.5 -1.4375 1.84375 -2.296875q1.359375 -0.875 3.1875 -0.875q2.34375 0 3.8125 1.484375q1.46875 1.484375 1.46875 4.203125l0 11.25l-4.640625 0l0 -10.328125q0 -1.390625 -0.734375 -2.09375q-0.734375 -0.703125 -1.84375 -0.703125q-1.265625 0 -1.984375 0.8125q-0.703125 0.796875 -0.703125 2.09375l0 10.21875l-4.5 0l0 -10.421875q0 -1.234375 -0.703125 -1.96875q-0.6875 -0.734375 -1.84375 -0.734375q-0.765625 0 -1.390625 0.390625q-0.609375 0.390625 -0.96875 1.078125q-0.359375 0.6875 -0.359375 1.625l0 10.03125l-4.640625 0zm27.95636 6.265625l0 -22.984375l4.578125 0l0 2.8125l0.203125 0q0.3125 -0.6875 0.890625 -1.375q0.578125 -0.703125 1.515625 -1.171875q0.953125 -0.484375 2.359375 -0.484375q1.828125 0 3.375 0.953125q1.546875 0.953125 2.46875 2.859375q0.921875 1.90625 0.921875 4.78125q0 2.796875 -0.90625 4.71875q-0.890625 1.921875 -2.4375 2.90625q-1.53125 0.984375 -3.4375 0.984375q-1.34375 0 -2.296875 -0.4375q-0.9375 -0.453125 -1.53125 -1.125q-0.59375 -0.6875 -0.921875 -1.375l-0.140625 0l0 8.9375l-4.640625 0zm4.546875 -14.625q0 1.484375 0.40625 2.59375q0.421875 1.109375 1.203125 1.734375q0.78125 0.609375 1.90625 0.609375q1.125 0 1.90625 -0.625q0.796875 -0.625 1.203125 -1.734375q0.40625 -1.125 0.40625 -2.578125q0 -1.453125 -0.40625 -2.546875q-0.390625 -1.09375 -1.1875 -1.71875q-0.78125 -0.625 -1.921875 -0.625q-1.125 0 -1.90625 0.609375q-0.78125 0.59375 -1.203125 1.6875q-0.40625 1.09375 -0.40625 2.59375zm19.482483 -13.9375l0 22.296875l-4.640625 0l0 -22.296875l4.640625 0zm3.6983643 22.296875l0 -16.71875l4.640625 0l0 16.71875l-4.640625 0zm2.34375 -18.875q-1.046875 0 -1.78125 -0.6875q-0.734375 -0.703125 -0.734375 -1.671875q0 -0.953125 0.734375 -1.640625q0.734375 -0.6875 1.78125 -0.6875q1.03125 0 1.765625 0.6875q0.734375 0.6875 0.734375 1.640625q0 0.96875 -0.734375 1.671875q-0.734375 0.6875 -1.765625 0.6875zm10.635864 9.203125l0 9.671875l-4.640625 0l0 -16.71875l4.421875 0l0 2.953125l0.203125 0q0.546875 -1.46875 1.859375 -2.3125q1.3125 -0.859375 3.171875 -0.859375q1.734375 0 3.03125 0.765625q1.296875 0.75 2.015625 2.171875q0.71875 1.40625 0.71875 3.359375l0 10.640625l-4.640625 0l0 -9.8125q0.015625 -1.546875 -0.78125 -2.40625q-0.796875 -0.859375 -2.1875 -0.859375q-0.9375 0 -1.65625 0.40625q-0.703125 0.390625 -1.109375 1.15625q-0.390625 0.765625 -0.40625 1.84375zm21.968384 16.296875q-2.265625 0 -3.875 -0.625q-1.59375 -0.609375 -2.546875 -1.671875q-0.9375 -1.046875 -1.234375 -2.375l4.296875 -0.578125q0.203125 0.515625 0.625 0.9375q0.421875 0.4375 1.125 0.703125q0.703125 0.265625 1.71875 0.265625q1.5 0 2.484375 -0.734375q1.0 -0.734375 1.0 -2.453125l0 -3.0625l-0.203125 0q-0.3125 0.703125 -0.921875 1.328125q-0.609375 0.625 -1.5625 1.015625q-0.953125 0.390625 -2.28125 0.390625q-1.890625 0 -3.4375 -0.875q-1.53125 -0.890625 -2.4375 -2.703125q-0.90625 -1.8125 -0.90625 -4.578125q0 -2.84375 0.921875 -4.75q0.921875 -1.90625 2.453125 -2.84375q1.546875 -0.953125 3.390625 -0.953125q1.40625 0 2.34375 0.484375q0.953125 0.46875 1.53125 1.171875q0.59375 0.6875 0.90625 1.375l0.171875 0l0 -2.8125l4.609375 0l0 16.875q0 2.140625 -1.046875 3.578125q-1.046875 1.4375 -2.890625 2.15625q-1.84375 0.734375 -4.234375 0.734375zm0.09375 -10.34375q1.125 0 1.890625 -0.5625q0.78125 -0.5625 1.203125 -1.609375q0.421875 -1.0625 0.421875 -2.53125q0 -1.46875 -0.421875 -2.546875q-0.40625 -1.078125 -1.1875 -1.671875q-0.78125 -0.609375 -1.90625 -0.609375q-1.140625 0 -1.9375 0.625q-0.78125 0.609375 -1.1875 1.703125q-0.390625 1.078125 -0.390625 2.5q0 1.453125 0.40625 2.515625q0.40625 1.046875 1.1875 1.625q0.78125 0.5625 1.921875 0.5625z" fill-rule="nonzero"/><path fill="#b7b7b7" d="m751.19684 541.0525l19.929138 0l0 -68.96063l39.858276 0l0 68.96063l19.929138 0l-39.858276 39.858276z" fill-rule="evenodd"/><path stroke="#000000" stroke-width="1.0" stroke-linejoin="round" stroke-linecap="butt" d="m751.19684 541.0525l19.929138 0l0 -68.96063l39.858276 0l0 68.96063l19.929138 0l-39.858276 39.858276z" fill-rule="evenodd"/><path fill="#000000" d="m802.6885 494.13174l-4.984375 0q-0.140625 -0.96875 -0.5625 -1.71875q-0.40625 -0.765625 -1.078125 -1.296875q-0.65625 -0.53125 -1.515625 -0.8125q-0.859375 -0.28125 -1.859375 -0.28125q-1.796875 0 -3.140625 0.890625q-1.34375 0.890625 -2.078125 2.59375q-0.734375 1.6875 -0.734375 4.109375q0 2.5 0.734375 4.1875q0.75 1.6875 2.078125 2.5625q1.34375 0.859375 3.109375 0.859375q0.984375 0 1.828125 -0.265625q0.859375 -0.265625 1.515625 -0.765625q0.65625 -0.5 1.09375 -1.21875q0.4375 -0.734375 0.609375 -1.671875l4.984375 0.015625q-0.203125 1.609375 -0.96875 3.09375q-0.765625 1.484375 -2.0625 2.65625q-1.28125 1.15625 -3.0625 1.828125q-1.78125 0.671875 -4.015625 0.671875q-3.109375 0 -5.5625 -1.40625q-2.453125 -1.40625 -3.875 -4.078125q-1.40625 -2.671875 -1.40625 -6.46875q0 -3.796875 1.4375 -6.46875q1.4375 -2.671875 3.890625 -4.078125q2.453125 -1.40625 5.515625 -1.40625q2.03125 0 3.75 0.578125q1.734375 0.5625 3.078125 1.65625q1.34375 1.078125 2.1875 2.65625q0.84375 1.5625 1.09375 3.578125z" fill-rule="nonzero"/><path fill="#000000" d="m782.9059 547.2568l0 -23.265625l4.84375 0l0 8.75l0.15625 0q0.3125 -0.71875 0.921875 -1.4375q0.609375 -0.734375 1.59375 -1.234375q0.984375 -0.5 2.453125 -0.5q1.90625 0 3.515625 1.0q1.609375 1.0 2.578125 3.0q0.96875 1.984375 0.96875 4.984375q0 2.921875 -0.9375 4.9375q-0.9375 2.0 -2.546875 3.03125q-1.609375 1.015625 -3.59375 1.015625q-1.40625 0 -2.390625 -0.453125q-0.984375 -0.46875 -1.609375 -1.171875q-0.625 -0.71875 -0.953125 -1.453125l-0.21875 0l0 2.796875l-4.78125 0zm4.75 -8.734375q0 1.5625 0.421875 2.71875q0.4375 1.15625 1.25 1.8125q0.828125 0.640625 2.0 0.640625q1.171875 0 1.984375 -0.65625q0.828125 -0.65625 1.25 -1.8125q0.4375 -1.171875 0.4375 -2.703125q0 -1.5 -0.421875 -2.640625q-0.421875 -1.15625 -1.25 -1.796875q-0.8125 -0.65625 -2.0 -0.65625q-1.1875 0 -2.0 0.625q-0.8125 0.625 -1.25 1.78125q-0.421875 1.140625 -0.421875 2.6875z" fill-rule="nonzero"/><path fill="#b7b7b7" d="m698.59845 736.66406l50.700745 0l0 -54.409485l101.40161 0l0 54.409485l50.700745 0l-101.40155 54.409424z" fill-rule="evenodd"/><path stroke="#000000" stroke-width="1.0" stroke-linejoin="round" stroke-linecap="butt" d="m698.59845 736.66406l50.700745 0l0 -54.409485l101.40161 0l0 54.409485l50.700745 0l-101.40155 54.409424z" fill-rule="evenodd"/><path fill="#b7b7b7" d="m698.59845 946.8268l50.700745 0l0 -54.409485l101.40161 0l0 54.409485l50.700745 0l-101.40155 54.409424z" fill-rule="evenodd"/><path stroke="#000000" stroke-width="1.0" stroke-linejoin="round" stroke-linecap="butt" d="m698.59845 946.8268l50.700745 0l0 -54.409485l101.40161 0l0 54.409485l50.700745 0l-101.40155 54.409424z" fill-rule="evenodd"/><path fill="#d9d2e9" d="m495.03937 581.5197l609.9212 0l0 100.12598l-609.9212 0z" fill-rule="evenodd"/><path stroke="#000000" stroke-width="4.0" stroke-linejoin="round" stroke-linecap="butt" d="m495.03937 581.5197l609.9212 0l0 100.12598l-609.9212 0z" fill-rule="evenodd"/><path fill="#000000" d="m633.04504 648.66266l0 -34.90625l13.984375 0q3.84375 0 6.421875 1.140625q2.578125 1.140625 3.875 3.171875q1.296875 2.015625 1.296875 4.640625q0 2.03125 -0.828125 3.578125q-0.8125 1.546875 -2.234375 2.53125q-1.421875 0.96875 -3.25 1.390625l0 0.328125q2.0 0.09375 3.734375 1.140625q1.75 1.03125 2.84375 2.90625q1.09375 1.859375 1.09375 4.4375q0 2.765625 -1.375 4.953125q-1.375 2.171875 -4.046875 3.4375q-2.671875 1.25 -6.59375 1.25l-14.921875 0zm7.390625 -6.03125l6.015625 0q3.078125 0 4.484375 -1.1875q1.421875 -1.1875 1.421875 -3.15625q0 -1.453125 -0.703125 -2.5625q-0.6875 -1.109375 -1.984375 -1.734375q-1.28125 -0.640625 -3.046875 -0.640625l-6.1875 0l0 9.28125zm0 -14.265625l5.46875 0q1.515625 0 2.6875 -0.53125q1.1875 -0.546875 1.875 -1.53125q0.703125 -1.0 0.703125 -2.375q0 -1.890625 -1.34375 -3.046875q-1.328125 -1.15625 -3.796875 -1.15625l-5.59375 0l0 8.640625zm31.456055 -14.609375l0 34.90625l-7.265625 0l0 -34.90625l7.265625 0zm17.634949 35.421875q-3.984375 0 -6.875 -1.6875q-2.875 -1.703125 -4.453125 -4.75q-1.5625 -3.046875 -1.5625 -7.0625q0 -4.0625 1.5625 -7.09375q1.578125 -3.046875 4.453125 -4.734375q2.890625 -1.703125 6.875 -1.703125q3.96875 0 6.859375 1.703125q2.890625 1.6875 4.453125 4.734375q1.5625 3.03125 1.5625 7.09375q0 4.015625 -1.5625 7.0625q-1.5625 3.046875 -4.453125 4.75q-2.890625 1.6875 -6.859375 1.6875zm0.03125 -5.625q1.796875 0 3.0 -1.03125q1.21875 -1.03125 1.84375 -2.8125q0.625 -1.796875 0.625 -4.09375q0 -2.28125 -0.625 -4.0625q-0.625 -1.796875 -1.84375 -2.828125q-1.203125 -1.046875 -3.0 -1.046875q-1.828125 0 -3.0625 1.046875q-1.234375 1.03125 -1.859375 2.828125q-0.625 1.78125 -0.625 4.0625q0 2.296875 0.625 4.09375q0.625 1.78125 1.859375 2.8125q1.234375 1.03125 3.0625 1.03125zm29.4234 5.625q-4.03125 0 -6.921875 -1.71875q-2.890625 -1.71875 -4.4375 -4.765625q-1.53125 -3.046875 -1.53125 -7.015625q0 -4.03125 1.546875 -7.0625q1.5625 -3.046875 4.4375 -4.75q2.890625 -1.71875 6.859375 -1.71875q3.4375 0 6.0 1.25q2.578125 1.234375 4.078125 3.484375q1.5 2.25 1.65625 5.28125l-6.859375 0q-0.28125 -1.953125 -1.515625 -3.15625q-1.234375 -1.203125 -3.234375 -1.203125q-1.6875 0 -2.9375 0.90625q-1.25 0.90625 -1.953125 2.65625q-0.703125 1.734375 -0.703125 4.203125q0 2.515625 0.6875 4.265625q0.703125 1.75 1.953125 2.671875q1.265625 0.921875 2.953125 0.921875q1.25 0 2.234375 -0.5q1.0 -0.515625 1.65625 -1.5q0.65625 -0.984375 0.859375 -2.359375l6.859375 0q-0.171875 3.0 -1.640625 5.28125q-1.453125 2.265625 -4.015625 3.546875q-2.546875 1.28125 -6.03125 1.28125zm22.943237 -8.046875l0.015625 -8.71875l1.046875 0l8.390625 -9.9375l8.328125 0l-11.265625 13.171875l-1.71875 0l-4.796875 5.484375zm-6.59375 7.53125l0 -34.90625l7.265625 0l0 34.90625l-7.265625 0zm16.375 0l-7.703125 -11.40625l4.828125 -5.125l11.375 16.53125l-8.5 0zm41.754333 -24.875q-0.203125 -2.0625 -1.75 -3.203125q-1.546875 -1.140625 -4.21875 -1.140625q-1.796875 0 -3.046875 0.515625q-1.25 0.5 -1.90625 1.390625q-0.65625 0.875 -0.65625 2.0q-0.03125 0.9375 0.40625 1.640625q0.4375 0.6875 1.203125 1.203125q0.765625 0.5 1.765625 0.875q1.015625 0.359375 2.15625 0.609375l3.140625 0.75q2.28125 0.515625 4.1875 1.375q1.90625 0.84375 3.296875 2.09375q1.40625 1.234375 2.171875 2.921875q0.78125 1.6875 0.796875 3.875q-0.015625 3.203125 -1.625 5.546875q-1.609375 2.34375 -4.640625 3.640625q-3.015625 1.28125 -7.28125 1.28125q-4.21875 0 -7.359375 -1.296875q-3.125 -1.296875 -4.875 -3.84375q-1.734375 -2.546875 -1.828125 -6.3125l7.140625 0q0.125 1.75 1.015625 2.921875q0.890625 1.15625 2.40625 1.75q1.515625 0.59375 3.421875 0.59375q1.875 0 3.265625 -0.546875q1.390625 -0.546875 2.15625 -1.515625q0.765625 -0.984375 0.765625 -2.234375q0 -1.1875 -0.703125 -1.984375q-0.6875 -0.796875 -2.015625 -1.359375q-1.3125 -0.5625 -3.21875 -1.03125l-3.796875 -0.953125q-4.421875 -1.0625 -6.984375 -3.34375q-2.546875 -2.296875 -2.53125 -6.15625q-0.015625 -3.171875 1.6875 -5.546875q1.71875 -2.375 4.71875 -3.703125q3.0 -1.328125 6.828125 -1.328125q3.875 0 6.78125 1.328125q2.90625 1.328125 4.53125 3.703125q1.625 2.375 1.671875 5.484375l-7.078125 0zm12.353821 34.6875l0 -36.0l7.171875 0l0 4.40625l0.3125 0q0.484375 -1.0625 1.390625 -2.15625q0.921875 -1.109375 2.390625 -1.84375q1.46875 -0.734375 3.671875 -0.734375q2.859375 0 5.28125 1.484375q2.421875 1.484375 3.875 4.484375q1.453125 2.984375 1.453125 7.484375q0 4.390625 -1.40625 7.40625q-1.40625 3.0 -3.828125 4.546875q-2.40625 1.53125 -5.390625 1.53125q-2.109375 0 -3.59375 -0.6875q-1.46875 -0.703125 -2.40625 -1.765625q-0.9375 -1.078125 -1.4375 -2.15625l-0.21875 0l0 14.0l-7.265625 0zm7.109375 -22.90625q0 2.34375 0.640625 4.078125q0.65625 1.734375 1.875 2.703125q1.234375 0.953125 3.0 0.953125q1.765625 0 2.984375 -0.96875q1.234375 -0.984375 1.875 -2.734375q0.640625 -1.75 0.640625 -4.03125q0 -2.265625 -0.640625 -3.984375q-0.625 -1.71875 -1.859375 -2.6875q-1.21875 -0.984375 -3.0 -0.984375q-1.78125 0 -3.0 0.9375q-1.21875 0.9375 -1.875 2.671875q-0.640625 1.71875 -0.640625 4.046875zm30.514282 -21.8125l0 34.90625l-7.265625 0l0 -34.90625l7.265625 0zm5.7911987 34.90625l0 -26.1875l7.265625 0l0 26.1875l-7.265625 0zm3.65625 -29.5625q-1.625 0 -2.78125 -1.078125q-1.140625 -1.078125 -1.140625 -2.59375q0 -1.5 1.140625 -2.578125q1.15625 -1.09375 2.78125 -1.09375q1.625 0 2.765625 1.09375q1.15625 1.078125 1.15625 2.578125q0 1.515625 -1.15625 2.59375q-1.140625 1.078125 -2.765625 1.078125zm23.338135 3.375l0 5.453125l-15.765625 0l0 -5.453125l15.765625 0zm-12.1875 -6.265625l7.25 0l0 24.40625q0 1.0 0.3125 1.5625q0.3125 0.546875 0.859375 0.78125q0.5625 0.21875 1.296875 0.21875q0.5 0 1.015625 -0.09375q0.515625 -0.09375 0.78125 -0.15625l1.140625 5.40625q-0.546875 0.171875 -1.53125 0.40625q-0.984375 0.234375 -2.40625 0.28125q-2.625 0.09375 -4.59375 -0.703125q-1.96875 -0.796875 -3.0625 -2.484375q-1.078125 -1.6875 -1.0625 -4.265625l0 -25.359375zm30.835266 6.265625l0 5.453125l-15.765625 0l0 -5.453125l15.765625 0zm-12.1875 -6.265625l7.25 0l0 24.40625q0 1.0 0.3125 1.5625q0.3125 0.546875 0.859375 0.78125q0.5625 0.21875 1.296875 0.21875q0.5 0 1.015625 -0.09375q0.515625 -0.09375 0.78125 -0.15625l1.140625 5.40625q-0.546875 0.171875 -1.53125 0.40625q-0.984375 0.234375 -2.40625 0.28125q-2.625 0.09375 -4.59375 -0.703125q-1.96875 -0.796875 -3.0625 -2.484375q-1.078125 -1.6875 -1.0625 -4.265625l0 -25.359375zm16.897766 32.453125l0 -26.1875l7.265625 0l0 26.1875l-7.265625 0zm3.65625 -29.5625q-1.625 0 -2.78125 -1.078125q-1.140625 -1.078125 -1.140625 -2.59375q0 -1.5 1.140625 -2.578125q1.15625 -1.09375 2.78125 -1.09375q1.625 0 2.765625 1.09375q1.15625 1.078125 1.15625 2.578125q0 1.515625 -1.15625 2.59375q-1.140625 1.078125 -2.765625 1.078125zm16.666199 14.421875l0 15.140625l-7.265625 0l0 -26.1875l6.921875 0l0 4.625l0.3125 0q0.875 -2.28125 2.90625 -3.609375q2.046875 -1.34375 4.96875 -1.34375q2.734375 0 4.75 1.1875q2.03125 1.1875 3.15625 3.40625q1.125 2.203125 1.125 5.25l0 16.671875l-7.265625 0l0 -15.375q0.03125 -2.40625 -1.21875 -3.75q-1.25 -1.359375 -3.421875 -1.359375q-1.46875 0 -2.59375 0.625q-1.109375 0.625 -1.734375 1.828125q-0.625 1.203125 -0.640625 2.890625zm34.37793 25.5q-3.515625 0 -6.03125 -0.96875q-2.515625 -0.953125 -4.0 -2.609375q-1.484375 -1.65625 -1.921875 -3.71875l6.703125 -0.890625q0.3125 0.78125 0.96875 1.453125q0.671875 0.6875 1.765625 1.09375q1.109375 0.421875 2.6875 0.421875q2.375 0 3.90625 -1.15625q1.546875 -1.140625 1.546875 -3.828125l0 -4.796875l-0.296875 0q-0.484375 1.09375 -1.4375 2.0625q-0.953125 0.96875 -2.453125 1.59375q-1.5 0.609375 -3.578125 0.609375q-2.953125 0 -5.375 -1.375q-2.40625 -1.375 -3.828125 -4.203125q-1.421875 -2.84375 -1.421875 -7.1875q0 -4.453125 1.453125 -7.4375q1.453125 -2.984375 3.859375 -4.453125q2.40625 -1.484375 5.296875 -1.484375q2.203125 0 3.671875 0.734375q1.484375 0.734375 2.390625 1.84375q0.921875 1.09375 1.421875 2.15625l0.265625 0l0 -4.40625l7.21875 0l0 26.4375q0 3.34375 -1.640625 5.59375q-1.640625 2.25 -4.53125 3.375q-2.890625 1.140625 -6.640625 1.140625zm0.15625 -16.1875q1.765625 0 2.984375 -0.875q1.21875 -0.875 1.875 -2.515625q0.65625 -1.65625 0.65625 -3.953125q0 -2.3125 -0.65625 -4.0q-0.640625 -1.703125 -1.875 -2.640625q-1.21875 -0.9375 -2.984375 -0.9375q-1.78125 0 -3.015625 0.96875q-1.21875 0.96875 -1.859375 2.671875q-0.625 1.703125 -0.625 3.9375q0 2.265625 0.640625 3.90625q0.640625 1.640625 1.859375 2.546875q1.21875 0.890625 3.0 0.890625z" fill-rule="nonzero"/><path fill="#d9d2e9" d="m495.03937 791.68243l609.9212 0l0 100.12598l-609.9212 0z" fill-rule="evenodd"/><path stroke="#000000" stroke-width="4.0" stroke-linejoin="round" stroke-linecap="butt" d="m495.03937 791.68243l609.9212 0l0 100.12598l-609.9212 0z" fill-rule="evenodd"/><path fill="#000000" d="m763.86066 858.8254l-12.375 0l0 -34.90625l12.484375 0q5.265625 0 9.0625 2.09375q3.796875 2.078125 5.84375 5.984375q2.0625 3.90625 2.0625 9.34375q0 5.453125 -2.0625 9.375q-2.046875 3.921875 -5.875 6.015625q-3.8125 2.09375 -9.140625 2.09375zm-4.984375 -6.328125l4.6875 0q3.265625 0 5.5 -1.15625q2.25 -1.171875 3.375 -3.625q1.140625 -2.46875 1.140625 -6.375q0 -3.875 -1.140625 -6.328125q-1.125 -2.453125 -3.359375 -3.609375q-2.234375 -1.15625 -5.5 -1.15625l-4.703125 0l0 22.25zm58.31543 -16.359375l-7.453125 0q-0.203125 -1.453125 -0.84375 -2.578125q-0.625 -1.140625 -1.625 -1.9375q-0.984375 -0.796875 -2.265625 -1.21875q-1.28125 -0.4375 -2.78125 -0.4375q-2.71875 0 -4.734375 1.34375q-2.0 1.328125 -3.109375 3.890625q-1.109375 2.546875 -1.109375 6.171875q0 3.734375 1.109375 6.28125q1.125 2.53125 3.125 3.828125q2.015625 1.296875 4.65625 1.296875q1.484375 0 2.75 -0.390625q1.28125 -0.390625 2.265625 -1.15625q0.984375 -0.765625 1.640625 -1.84375q0.65625 -1.09375 0.921875 -2.5l7.453125 0.046875q-0.28125 2.390625 -1.4375 4.625q-1.140625 2.21875 -3.078125 3.96875q-1.9375 1.75 -4.609375 2.765625q-2.65625 1.015625 -6.015625 1.015625q-4.671875 0 -8.34375 -2.109375q-3.671875 -2.125 -5.796875 -6.125q-2.125 -4.015625 -2.125 -9.703125q0 -5.71875 2.140625 -9.71875q2.15625 -4.0 5.828125 -6.109375q3.6875 -2.109375 8.296875 -2.109375q3.03125 0 5.625 0.859375q2.609375 0.84375 4.609375 2.484375q2.015625 1.625 3.28125 3.984375q1.28125 2.34375 1.625 5.375zm3.977356 -6.140625l0 -6.078125l28.671875 0l0 6.078125l-10.6875 0l0 28.828125l-7.296875 0l0 -28.828125l-10.6875 0z" fill-rule="nonzero"/><path fill="#b7b7b7" d="m698.59845 1156.9895l50.700745 0l0 -54.409424l101.40161 0l0 54.409424l50.700745 0l-101.40155 54.409424z" fill-rule="evenodd"/><path stroke="#000000" stroke-width="1.0" stroke-linejoin="round" stroke-linecap="butt" d="m698.59845 1156.9895l50.700745 0l0 -54.409424l101.40161 0l0 54.409424l50.700745 0l-101.40155 54.409424z" fill-rule="evenodd"/><path fill="#d9d2e9" d="m495.03937 1001.84515l609.9212 0l0 100.125916l-609.9212 0z" fill-rule="evenodd"/><path stroke="#000000" stroke-width="4.0" stroke-linejoin="round" stroke-linecap="butt" d="m495.03937 1001.84515l609.9212 0l0 100.125916l-609.9212 0z" fill-rule="evenodd"/><path fill="#000000" d="m664.64307 1056.8475l6.28125 0l3.15625 4.0625l3.09375 3.609375l5.84375 7.328125l-6.875 0l-4.03125 -4.9375l-2.0625 -2.9375l-5.40625 -7.125zm18.90625 -5.3125q0 5.703125 -2.15625 9.71875q-2.15625 4.0 -5.859375 6.109375q-3.703125 2.109375 -8.328125 2.109375q-4.65625 0 -8.359375 -2.109375q-3.6875 -2.125 -5.84375 -6.125q-2.140625 -4.015625 -2.140625 -9.703125q0 -5.71875 2.140625 -9.71875q2.15625 -4.0 5.84375 -6.109375q3.703125 -2.109375 8.359375 -2.109375q4.625 0 8.328125 2.109375q3.703125 2.109375 5.859375 6.109375q2.15625 4.0 2.15625 9.71875zm-7.484375 0q0 -3.703125 -1.09375 -6.234375q-1.09375 -2.546875 -3.09375 -3.859375q-2.0 -1.3125 -4.671875 -1.3125q-2.671875 0 -4.671875 1.3125q-1.984375 1.3125 -3.09375 3.859375q-1.09375 2.53125 -1.09375 6.234375q0 3.703125 1.09375 6.25q1.109375 2.53125 3.09375 3.84375q2.0 1.3125 4.671875 1.3125q2.671875 0 4.671875 -1.3125q2.0 -1.3125 3.09375 -3.84375q1.09375 -2.546875 1.09375 -6.25zm29.630798 6.3125l0 -15.046875l7.265625 0l0 26.1875l-6.96875 0l0 -4.75l-0.28125 0q-0.890625 2.296875 -2.953125 3.703125q-2.046875 1.390625 -4.984375 1.390625q-2.625 0 -4.625 -1.1875q-2.0 -1.203125 -3.109375 -3.390625q-1.109375 -2.203125 -1.140625 -5.28125l0 -16.671875l7.265625 0l0 15.375q0.015625 2.328125 1.234375 3.671875q1.234375 1.34375 3.296875 1.34375q1.3125 0 2.453125 -0.59375q1.15625 -0.609375 1.859375 -1.796875q0.703125 -1.203125 0.6875 -2.953125zm20.518555 11.640625q-2.5 0 -4.46875 -0.875q-1.953125 -0.890625 -3.09375 -2.609375q-1.125 -1.734375 -1.125 -4.328125q0 -2.1875 0.796875 -3.65625q0.796875 -1.484375 2.171875 -2.390625q1.390625 -0.90625 3.15625 -1.359375q1.765625 -0.46875 3.703125 -0.65625q2.296875 -0.234375 3.6875 -0.453125q1.390625 -0.21875 2.015625 -0.640625q0.640625 -0.421875 0.640625 -1.265625l0 -0.09375q0 -1.625 -1.015625 -2.5q-1.015625 -0.890625 -2.875 -0.890625q-1.953125 0 -3.109375 0.859375q-1.15625 0.859375 -1.53125 2.15625l-6.71875 -0.546875q0.515625 -2.390625 2.015625 -4.125q1.5 -1.75 3.875 -2.6875q2.375 -0.953125 5.515625 -0.953125q2.171875 0 4.171875 0.515625q2.015625 0.5 3.5625 1.578125q1.5625 1.0625 2.46875 2.75q0.90625 1.671875 0.90625 4.015625l0 17.65625l-6.890625 0l0 -3.625l-0.203125 0q-0.625 1.21875 -1.6875 2.15625q-1.0625 0.921875 -2.546875 1.453125q-1.46875 0.515625 -3.421875 0.515625zm2.078125 -5.015625q1.609375 0 2.828125 -0.640625q1.234375 -0.640625 1.921875 -1.734375q0.703125 -1.09375 0.703125 -2.46875l0 -2.78125q-0.328125 0.21875 -0.921875 0.40625q-0.59375 0.171875 -1.328125 0.328125q-0.71875 0.140625 -1.453125 0.25q-0.734375 0.109375 -1.328125 0.203125q-1.28125 0.1875 -2.234375 0.59375q-0.953125 0.40625 -1.484375 1.09375q-0.53125 0.6875 -0.53125 1.71875q0 1.484375 1.078125 2.265625q1.078125 0.765625 2.75 0.765625zm25.571045 -10.625l0 15.140625l-7.265625 0l0 -26.1875l6.921875 0l0 4.625l0.3125 0q0.875 -2.28125 2.90625 -3.609375q2.046875 -1.34375 4.96875 -1.34375q2.734375 0 4.75 1.1875q2.03125 1.1875 3.15625 3.40625q1.125 2.203125 1.125 5.25l0 16.671875l-7.265625 0l0 -15.375q0.03125 -2.40625 -1.21875 -3.75q-1.25 -1.359375 -3.421875 -1.359375q-1.46875 0 -2.59375 0.625q-1.109375 0.625 -1.734375 1.828125q-0.625 1.203125 -0.640625 2.890625zm36.518555 -11.046875l0 5.453125l-15.765625 0l0 -5.453125l15.765625 0zm-12.1875 -6.265625l7.25 0l0 24.40625q0 1.0 0.3125 1.5625q0.3125 0.546875 0.859375 0.78125q0.5625 0.21875 1.296875 0.21875q0.5 0 1.015625 -0.09375q0.515625 -0.09375 0.78125 -0.15625l1.140625 5.40625q-0.546875 0.171875 -1.53125 0.40625q-0.984375 0.234375 -2.40625 0.28125q-2.625 0.09375 -4.59375 -0.703125q-1.96875 -0.796875 -3.0625 -2.484375q-1.078125 -1.6875 -1.0625 -4.265625l0 -25.359375zm16.897766 32.453125l0 -26.1875l7.265625 0l0 26.1875l-7.265625 0zm3.65625 -29.5625q-1.625 0 -2.78125 -1.078125q-1.140625 -1.078125 -1.140625 -2.59375q0 -1.5 1.140625 -2.578125q1.15625 -1.09375 2.78125 -1.09375q1.625 0 2.765625 1.09375q1.15625 1.078125 1.15625 2.578125q0 1.515625 -1.15625 2.59375q-1.140625 1.078125 -2.765625 1.078125zm9.275635 29.5625l0 -4.328125l12.8125 -15.875l0 -0.1875l-12.375 0l0 -5.796875l21.125 0l0 4.734375l-12.03125 15.46875l0 0.1875l12.46875 0l0 5.796875l-22.0 0zm35.036987 0.5q-2.5 0 -4.46875 -0.875q-1.953125 -0.890625 -3.09375 -2.609375q-1.125 -1.734375 -1.125 -4.328125q0 -2.1875 0.796875 -3.65625q0.796875 -1.484375 2.171875 -2.390625q1.390625 -0.90625 3.15625 -1.359375q1.765625 -0.46875 3.703125 -0.65625q2.296875 -0.234375 3.6875 -0.453125q1.390625 -0.21875 2.015625 -0.640625q0.640625 -0.421875 0.640625 -1.265625l0 -0.09375q0 -1.625 -1.015625 -2.5q-1.015625 -0.890625 -2.875 -0.890625q-1.953125 0 -3.109375 0.859375q-1.15625 0.859375 -1.53125 2.15625l-6.71875 -0.546875q0.515625 -2.390625 2.015625 -4.125q1.5 -1.75 3.875 -2.6875q2.375 -0.953125 5.515625 -0.953125q2.171875 0 4.171875 0.515625q2.015625 0.5 3.5625 1.578125q1.5625 1.0625 2.46875 2.75q0.90625 1.671875 0.90625 4.015625l0 17.65625l-6.890625 0l0 -3.625l-0.203125 0q-0.625 1.21875 -1.6875 2.15625q-1.0625 0.921875 -2.546875 1.453125q-1.46875 0.515625 -3.421875 0.515625zm2.078125 -5.015625q1.609375 0 2.828125 -0.640625q1.234375 -0.640625 1.921875 -1.734375q0.703125 -1.09375 0.703125 -2.46875l0 -2.78125q-0.328125 0.21875 -0.921875 0.40625q-0.59375 0.171875 -1.328125 0.328125q-0.71875 0.140625 -1.453125 0.25q-0.734375 0.109375 -1.328125 0.203125q-1.28125 0.1875 -2.234375 0.59375q-0.953125 0.40625 -1.484375 1.09375q-0.53125 0.6875 -0.53125 1.71875q0 1.484375 1.078125 2.265625q1.078125 0.765625 2.75 0.765625zm32.24298 -21.671875l0 5.453125l-15.765625 0l0 -5.453125l15.765625 0zm-12.1875 -6.265625l7.25 0l0 24.40625q0 1.0 0.3125 1.5625q0.3125 0.546875 0.859375 0.78125q0.5625 0.21875 1.296875 0.21875q0.5 0 1.015625 -0.09375q0.515625 -0.09375 0.78125 -0.15625l1.140625 5.40625q-0.546875 0.171875 -1.53125 0.40625q-0.984375 0.234375 -2.40625 0.28125q-2.625 0.09375 -4.59375 -0.703125q-1.96875 -0.796875 -3.0625 -2.484375q-1.078125 -1.6875 -1.0625 -4.265625l0 -25.359375zm16.897766 32.453125l0 -26.1875l7.265625 0l0 26.1875l-7.265625 0zm3.65625 -29.5625q-1.625 0 -2.78125 -1.078125q-1.140625 -1.078125 -1.140625 -2.59375q0 -1.5 1.140625 -2.578125q1.15625 -1.09375 2.78125 -1.09375q1.625 0 2.765625 1.09375q1.15625 1.078125 1.15625 2.578125q0 1.515625 -1.15625 2.59375q-1.140625 1.078125 -2.765625 1.078125zm21.244385 30.078125q-3.984375 0 -6.875 -1.6875q-2.875 -1.703125 -4.453125 -4.75q-1.5625 -3.046875 -1.5625 -7.0625q0 -4.0625 1.5625 -7.09375q1.578125 -3.046875 4.453125 -4.734375q2.890625 -1.703125 6.875 -1.703125q3.96875 0 6.859375 1.703125q2.890625 1.6875 4.453125 4.734375q1.5625 3.03125 1.5625 7.09375q0 4.015625 -1.5625 7.0625q-1.5625 3.046875 -4.453125 4.75q-2.890625 1.6875 -6.859375 1.6875zm0.03125 -5.625q1.796875 0 3.0 -1.03125q1.21875 -1.03125 1.84375 -2.8125q0.625 -1.796875 0.625 -4.09375q0 -2.28125 -0.625 -4.0625q-0.625 -1.796875 -1.84375 -2.828125q-1.203125 -1.046875 -3.0 -1.046875q-1.828125 0 -3.0625 1.046875q-1.234375 1.03125 -1.859375 2.828125q-0.625 1.78125 -0.625 4.0625q0 2.296875 0.625 4.09375q0.625 1.78125 1.859375 2.8125q1.234375 1.03125 3.0625 1.03125zm24.845215 -10.03125l0 15.140625l-7.265625 0l0 -26.1875l6.921875 0l0 4.625l0.3125 0q0.875 -2.28125 2.90625 -3.609375q2.046875 -1.34375 4.96875 -1.34375q2.734375 0 4.75 1.1875q2.03125 1.1875 3.15625 3.40625q1.125 2.203125 1.125 5.25l0 16.671875l-7.265625 0l0 -15.375q0.03125 -2.40625 -1.21875 -3.75q-1.25 -1.359375 -3.421875 -1.359375q-1.46875 0 -2.59375 0.625q-1.109375 0.625 -1.734375 1.828125q-0.625 1.203125 -0.640625 2.890625z" fill-rule="nonzero"/><path fill="#b7b7b7" d="m698.59845 1367.1522l50.700745 0l0 -54.409424l101.40161 0l0 54.409424l50.700745 0l-101.40155 54.409424z" fill-rule="evenodd"/><path stroke="#000000" stroke-width="1.0" stroke-linejoin="round" stroke-linecap="butt" d="m698.59845 1367.1522l50.700745 0l0 -54.409424l101.40161 0l0 54.409424l50.700745 0l-101.40155 54.409424z" fill-rule="evenodd"/><path fill="#d9d2e9" d="m495.03937 1212.0079l609.9212 0l0 100.12598l-609.9212 0z" fill-rule="evenodd"/><path stroke="#000000" stroke-width="4.0" stroke-linejoin="round" stroke-linecap="butt" d="m495.03937 1212.0079l609.9212 0l0 100.12598l-609.9212 0z" fill-rule="evenodd"/><path fill="#000000" d="m621.11316 1279.1509l0 -34.90625l23.53125 0l0 6.078125l-16.140625 0l0 8.328125l14.921875 0l0 6.078125l-14.921875 0l0 8.34375l16.203125 0l0 6.078125l-23.59375 0zm36.528503 -15.140625l0 15.140625l-7.265625 0l0 -26.1875l6.921875 0l0 4.625l0.3125 0q0.875 -2.28125 2.90625 -3.609375q2.046875 -1.34375 4.96875 -1.34375q2.734375 0 4.75 1.1875q2.03125 1.1875 3.15625 3.40625q1.125 2.203125 1.125 5.25l0 16.671875l-7.265625 0l0 -15.375q0.03125 -2.40625 -1.21875 -3.75q-1.25 -1.359375 -3.421875 -1.359375q-1.46875 0 -2.59375 0.625q-1.109375 0.625 -1.734375 1.828125q-0.625 1.203125 -0.640625 2.890625zm36.518555 -11.046875l0 5.453125l-15.765625 0l0 -5.453125l15.765625 0zm-12.1875 -6.265625l7.25 0l0 24.40625q0 1.0 0.3125 1.5625q0.3125 0.546875 0.859375 0.78125q0.5625 0.21875 1.296875 0.21875q0.5 0 1.015625 -0.09375q0.515625 -0.09375 0.78125 -0.15625l1.140625 5.40625q-0.546875 0.171875 -1.53125 0.40625q-0.984375 0.234375 -2.40625 0.28125q-2.625 0.09375 -4.59375 -0.703125q-1.96875 -0.796875 -3.0625 -2.484375q-1.078125 -1.6875 -1.0625 -4.265625l0 -25.359375zm16.897766 32.453125l0 -26.1875l7.046875 0l0 4.578125l0.265625 0q0.71875 -2.4375 2.40625 -3.6875q1.6875 -1.265625 3.890625 -1.265625q0.546875 0 1.171875 0.078125q0.640625 0.0625 1.109375 0.1875l0 6.4375q-0.515625 -0.15625 -1.421875 -0.265625q-0.890625 -0.125 -1.640625 -0.125q-1.609375 0 -2.859375 0.6875q-1.25 0.6875 -1.984375 1.921875q-0.71875 1.21875 -0.71875 2.828125l0 14.8125l-7.265625 0zm30.23584 0.515625q-3.984375 0 -6.875 -1.6875q-2.875 -1.703125 -4.453125 -4.75q-1.5625 -3.046875 -1.5625 -7.0625q0 -4.0625 1.5625 -7.09375q1.578125 -3.046875 4.453125 -4.734375q2.890625 -1.703125 6.875 -1.703125q3.96875 0 6.859375 1.703125q2.890625 1.6875 4.453125 4.734375q1.5625 3.03125 1.5625 7.09375q0 4.015625 -1.5625 7.0625q-1.5625 3.046875 -4.453125 4.75q-2.890625 1.6875 -6.859375 1.6875zm0.03125 -5.625q1.796875 0 3.0 -1.03125q1.21875 -1.03125 1.84375 -2.8125q0.625 -1.796875 0.625 -4.09375q0 -2.28125 -0.625 -4.0625q-0.625 -1.796875 -1.84375 -2.828125q-1.203125 -1.046875 -3.0 -1.046875q-1.828125 0 -3.0625 1.046875q-1.234375 1.03125 -1.859375 2.828125q-0.625 1.78125 -0.625 4.0625q0 2.296875 0.625 4.09375q0.625 1.78125 1.859375 2.8125q1.234375 1.03125 3.0625 1.03125zm17.57965 14.921875l0 -36.0l7.171875 0l0 4.40625l0.3125 0q0.484375 -1.0625 1.390625 -2.15625q0.921875 -1.109375 2.390625 -1.84375q1.46875 -0.734375 3.671875 -0.734375q2.859375 0 5.28125 1.484375q2.421875 1.484375 3.875 4.484375q1.453125 2.984375 1.453125 7.484375q0 4.390625 -1.40625 7.40625q-1.40625 3.0 -3.828125 4.546875q-2.40625 1.53125 -5.390625 1.53125q-2.109375 0 -3.59375 -0.6875q-1.46875 -0.703125 -2.40625 -1.765625q-0.9375 -1.078125 -1.4375 -2.15625l-0.21875 0l0 14.0l-7.265625 0zm7.109375 -22.90625q0 2.34375 0.640625 4.078125q0.65625 1.734375 1.875 2.703125q1.234375 0.953125 3.0 0.953125q1.765625 0 2.984375 -0.96875q1.234375 -0.984375 1.875 -2.734375q0.640625 -1.75 0.640625 -4.03125q0 -2.265625 -0.640625 -3.984375q-0.625 -1.71875 -1.859375 -2.6875q-1.21875 -0.984375 -3.0 -0.984375q-1.78125 0 -3.0 0.9375q-1.21875 0.9375 -1.875 2.671875q-0.640625 1.71875 -0.640625 4.046875zm26.863708 22.90625q-1.375 0 -2.578125 -0.21875q-1.203125 -0.203125 -1.984375 -0.53125l1.640625 -5.421875q1.28125 0.40625 2.3125 0.4375q1.03125 0.03125 1.78125 -0.484375q0.765625 -0.515625 1.234375 -1.734375l0.421875 -1.109375l-9.390625 -26.9375l7.640625 0l5.421875 19.234375l0.265625 0l5.484375 -19.234375l7.6875 0l-10.1875 29.015625q-0.734375 2.109375 -1.984375 3.6875q-1.25 1.578125 -3.15625 2.4375q-1.90625 0.859375 -4.609375 0.859375zm65.70886 -32.5l-7.453125 0q-0.203125 -1.453125 -0.84375 -2.578125q-0.625 -1.140625 -1.625 -1.9375q-0.984375 -0.796875 -2.265625 -1.21875q-1.28125 -0.4375 -2.78125 -0.4375q-2.71875 0 -4.734375 1.34375q-2.0 1.328125 -3.109375 3.890625q-1.109375 2.546875 -1.109375 6.171875q0 3.734375 1.109375 6.28125q1.125 2.53125 3.125 3.828125q2.015625 1.296875 4.65625 1.296875q1.484375 0 2.75 -0.390625q1.28125 -0.390625 2.265625 -1.15625q0.984375 -0.765625 1.640625 -1.84375q0.65625 -1.09375 0.921875 -2.5l7.453125 0.046875q-0.28125 2.390625 -1.4375 4.625q-1.140625 2.21875 -3.078125 3.96875q-1.9375 1.75 -4.609375 2.765625q-2.65625 1.015625 -6.015625 1.015625q-4.671875 0 -8.34375 -2.109375q-3.671875 -2.125 -5.796875 -6.125q-2.125 -4.015625 -2.125 -9.703125q0 -5.71875 2.140625 -9.71875q2.15625 -4.0 5.828125 -6.109375q3.6875 -2.109375 8.296875 -2.109375q3.03125 0 5.625 0.859375q2.609375 0.84375 4.609375 2.484375q2.015625 1.625 3.28125 3.984375q1.28125 2.34375 1.625 5.375zm17.008667 23.203125q-3.984375 0 -6.875 -1.6875q-2.875 -1.703125 -4.453125 -4.75q-1.5625 -3.046875 -1.5625 -7.0625q0 -4.0625 1.5625 -7.09375q1.578125 -3.046875 4.453125 -4.734375q2.890625 -1.703125 6.875 -1.703125q3.96875 0 6.859375 1.703125q2.890625 1.6875 4.453125 4.734375q1.5625 3.03125 1.5625 7.09375q0 4.015625 -1.5625 7.0625q-1.5625 3.046875 -4.453125 4.75q-2.890625 1.6875 -6.859375 1.6875zm0.03125 -5.625q1.796875 0 3.0 -1.03125q1.21875 -1.03125 1.84375 -2.8125q0.625 -1.796875 0.625 -4.09375q0 -2.28125 -0.625 -4.0625q-0.625 -1.796875 -1.84375 -2.828125q-1.203125 -1.046875 -3.0 -1.046875q-1.828125 0 -3.0625 1.046875q-1.234375 1.03125 -1.859375 2.828125q-0.625 1.78125 -0.625 4.0625q0 2.296875 0.625 4.09375q0.625 1.78125 1.859375 2.8125q1.234375 1.03125 3.0625 1.03125zm27.23584 5.53125q-2.984375 0 -5.40625 -1.53125q-2.40625 -1.546875 -3.8125 -4.546875q-1.40625 -3.015625 -1.40625 -7.40625q0 -4.5 1.453125 -7.484375q1.453125 -3.0 3.859375 -4.484375q2.40625 -1.484375 5.296875 -1.484375q2.203125 0 3.671875 0.734375q1.46875 0.734375 2.375 1.84375q0.921875 1.09375 1.40625 2.15625l0.21875 0l0 -13.125l7.234375 0l0 34.90625l-7.15625 0l0 -4.1875l-0.296875 0q-0.515625 1.078125 -1.453125 2.15625q-0.921875 1.0625 -2.40625 1.765625q-1.46875 0.6875 -3.578125 0.6875zm2.296875 -5.78125q1.765625 0 2.984375 -0.953125q1.21875 -0.96875 1.875 -2.703125q0.65625 -1.734375 0.65625 -4.078125q0 -2.328125 -0.65625 -4.046875q-0.640625 -1.734375 -1.875 -2.671875q-1.21875 -0.9375 -2.984375 -0.9375q-1.78125 0 -3.015625 0.984375q-1.21875 0.96875 -1.859375 2.6875q-0.625 1.71875 -0.625 3.984375q0 2.28125 0.640625 4.03125q0.640625 1.75 1.859375 2.734375q1.21875 0.96875 3.0 0.96875zm18.54126 5.359375l0 -26.1875l7.265625 0l0 26.1875l-7.265625 0zm3.65625 -29.5625q-1.625 0 -2.78125 -1.078125q-1.140625 -1.078125 -1.140625 -2.59375q0 -1.5 1.140625 -2.578125q1.15625 -1.09375 2.78125 -1.09375q1.625 0 2.765625 1.09375q1.15625 1.078125 1.15625 2.578125q0 1.515625 -1.15625 2.59375q-1.140625 1.078125 -2.765625 1.078125zm16.66626 14.421875l0 15.140625l-7.265625 0l0 -26.1875l6.921875 0l0 4.625l0.3125 0q0.875 -2.28125 2.90625 -3.609375q2.046875 -1.34375 4.96875 -1.34375q2.734375 0 4.75 1.1875q2.03125 1.1875 3.15625 3.40625q1.125 2.203125 1.125 5.25l0 16.671875l-7.265625 0l0 -15.375q0.03125 -2.40625 -1.21875 -3.75q-1.25 -1.359375 -3.421875 -1.359375q-1.46875 0 -2.59375 0.625q-1.109375 0.625 -1.734375 1.828125q-0.625 1.203125 -0.640625 2.890625zm34.37787 25.5q-3.515625 0 -6.03125 -0.96875q-2.515625 -0.953125 -4.0 -2.609375q-1.484375 -1.65625 -1.921875 -3.71875l6.703125 -0.890625q0.3125 0.78125 0.96875 1.453125q0.671875 0.6875 1.765625 1.09375q1.109375 0.421875 2.6875 0.421875q2.375 0 3.90625 -1.15625q1.546875 -1.140625 1.546875 -3.828125l0 -4.796875l-0.296875 0q-0.484375 1.09375 -1.4375 2.0625q-0.953125 0.96875 -2.453125 1.59375q-1.5 0.609375 -3.578125 0.609375q-2.953125 0 -5.375 -1.375q-2.40625 -1.375 -3.828125 -4.203125q-1.421875 -2.84375 -1.421875 -7.1875q0 -4.453125 1.453125 -7.4375q1.453125 -2.984375 3.859375 -4.453125q2.40625 -1.484375 5.296875 -1.484375q2.203125 0 3.671875 0.734375q1.484375 0.734375 2.390625 1.84375q0.921875 1.09375 1.421875 2.15625l0.265625 0l0 -4.40625l7.21875 0l0 26.4375q0 3.34375 -1.640625 5.59375q-1.640625 2.25 -4.53125 3.375q-2.890625 1.140625 -6.640625 1.140625zm0.15625 -16.1875q1.765625 0 2.984375 -0.875q1.21875 -0.875 1.875 -2.515625q0.65625 -1.65625 0.65625 -3.953125q0 -2.3125 -0.65625 -4.0q-0.640625 -1.703125 -1.875 -2.640625q-1.21875 -0.9375 -2.984375 -0.9375q-1.78125 0 -3.015625 0.96875q-1.21875 0.96875 -1.859375 2.671875q-0.625 1.703125 -0.625 3.9375q0 2.265625 0.640625 3.90625q0.640625 1.640625 1.859375 2.546875q1.21875 0.890625 3.0 0.890625z" fill-rule="nonzero"/><path fill="#d9d2e9" d="m495.03937 1422.1707l609.9212 0l0 100.12598l-609.9212 0z" fill-rule="evenodd"/><path stroke="#000000" stroke-width="4.0" stroke-linejoin="round" stroke-linecap="butt" d="m495.03937 1422.1707l609.9212 0l0 100.12598l-609.9212 0z" fill-rule="evenodd"/><path fill="#000000" d="m690.81366 1489.7511q-1.6875 0 -2.890625 -1.1875q-1.203125 -1.203125 -1.203125 -2.890625q0 -1.671875 1.203125 -2.859375q1.203125 -1.203125 2.890625 -1.203125q1.640625 0 2.859375 1.203125q1.234375 1.1875 1.234375 2.859375q0 1.125 -0.578125 2.046875q-0.5625 0.921875 -1.484375 1.484375q-0.921875 0.546875 -2.03125 0.546875zm24.159119 -35.34375l7.296875 0l0 24.34375q0 3.375 -1.515625 5.859375q-1.5 2.484375 -4.1875 3.84375q-2.671875 1.34375 -6.21875 1.34375q-3.15625 0 -5.71875 -1.109375q-2.5625 -1.125 -4.0625 -3.421875q-1.5 -2.296875 -1.484375 -5.765625l7.34375 0q0.03125 1.375 0.5625 2.359375q0.546875 0.96875 1.484375 1.5q0.953125 0.515625 2.25 0.515625q1.359375 0 2.296875 -0.578125q0.953125 -0.59375 1.453125 -1.734375q0.5 -1.140625 0.5 -2.8125l0 -24.34375zm13.373657 34.90625l0 -34.90625l13.78125 0q3.96875 0 6.765625 1.515625q2.796875 1.5 4.265625 4.171875q1.46875 2.65625 1.46875 6.140625q0 3.46875 -1.5 6.140625q-1.5 2.65625 -4.34375 4.140625q-2.828125 1.484375 -6.84375 1.484375l-8.78125 0l0 -5.921875l7.578125 0q2.140625 0 3.515625 -0.734375q1.390625 -0.75 2.078125 -2.0625q0.703125 -1.328125 0.703125 -3.046875q0 -1.734375 -0.703125 -3.03125q-0.6875 -1.3125 -2.078125 -2.03125q-1.390625 -0.734375 -3.546875 -0.734375l-4.96875 0l0 28.875l-7.390625 0zm31.090942 0l0 -34.90625l23.53125 0l0 6.078125l-16.140625 0l0 8.328125l14.921875 0l0 6.078125l-14.921875 0l0 8.34375l16.203125 0l0 6.078125l-23.59375 0zm52.559753 -23.625q-0.359375 -1.25 -1.015625 -2.203125q-0.640625 -0.96875 -1.578125 -1.640625q-0.921875 -0.671875 -2.109375 -1.03125q-1.1875 -0.359375 -2.609375 -0.359375q-2.6875 0 -4.703125 1.328125q-2.015625 1.328125 -3.140625 3.859375q-1.125 2.53125 -1.125 6.1875q0 3.640625 1.109375 6.203125q1.109375 2.546875 3.125 3.890625q2.03125 1.34375 4.796875 1.34375q2.5 0 4.28125 -0.890625q1.78125 -0.90625 2.71875 -2.53125q0.953125 -1.640625 0.953125 -3.875l1.5 0.21875l-9.0 0l0 -5.5625l14.609375 0l0 4.40625q0 4.59375 -1.9375 7.90625q-1.9375 3.296875 -5.359375 5.078125q-3.40625 1.78125 -7.796875 1.78125q-4.90625 0 -8.625 -2.171875q-3.71875 -2.1875 -5.796875 -6.1875q-2.0625 -4.015625 -2.0625 -9.546875q0 -4.25 1.234375 -7.578125q1.234375 -3.328125 3.46875 -5.640625q2.234375 -2.328125 5.203125 -3.53125q2.96875 -1.21875 6.421875 -1.21875q2.96875 0 5.515625 0.859375q2.5625 0.859375 4.546875 2.4375q1.984375 1.5625 3.25 3.71875q1.265625 2.15625 1.625 4.75l-7.5 0zm24.4859 23.625l0 -34.90625l23.109375 0l0 6.078125l-15.71875 0l0 8.328125l14.1875 0l0 6.078125l-14.1875 0l0 14.421875l-7.390625 0zm27.93335 0l0 -26.1875l7.265625 0l0 26.1875l-7.265625 0zm3.65625 -29.5625q-1.625 0 -2.78125 -1.078125q-1.140625 -1.078125 -1.140625 -2.59375q0 -1.5 1.140625 -2.578125q1.15625 -1.09375 2.78125 -1.09375q1.625 0 2.765625 1.09375q1.15625 1.078125 1.15625 2.578125q0 1.515625 -1.15625 2.59375q-1.140625 1.078125 -2.765625 1.078125zm16.666199 -5.34375l0 34.90625l-7.265625 0l0 -34.90625l7.265625 0zm17.72876 35.421875q-4.03125 0 -6.9375 -1.640625q-2.90625 -1.65625 -4.484375 -4.671875q-1.5625 -3.03125 -1.5625 -7.171875q0 -4.046875 1.5625 -7.09375q1.578125 -3.046875 4.421875 -4.75q2.859375 -1.703125 6.71875 -1.703125q2.578125 0 4.8125 0.828125q2.25 0.8125 3.921875 2.46875q1.6875 1.65625 2.625 4.15625q0.9375 2.5 0.9375 5.828125l0 2.0l-22.109375 0l0 -4.5l15.28125 0q0 -1.5625 -0.6875 -2.765625q-0.6875 -1.21875 -1.890625 -1.90625q-1.1875 -0.703125 -2.78125 -0.703125q-1.65625 0 -2.921875 0.765625q-1.265625 0.765625 -1.984375 2.03125q-0.71875 1.265625 -0.734375 2.8125l0 4.28125q0 1.953125 0.71875 3.375q0.734375 1.40625 2.0625 2.171875q1.328125 0.765625 3.15625 0.765625q1.203125 0 2.203125 -0.34375q1.015625 -0.34375 1.734375 -1.015625q0.71875 -0.6875 1.09375 -1.671875l6.703125 0.4375q-0.5 2.421875 -2.078125 4.21875q-1.578125 1.796875 -4.0625 2.796875q-2.484375 1.0 -5.71875 1.0z" fill-rule="nonzero"/><path fill="#b7b7b7" d="m872.87665 542.0105l19.929138 0l0 -68.96063l39.858276 0l0 68.96063l19.929138 0l-39.858276 39.858276z" fill-rule="evenodd"/><path stroke="#000000" stroke-width="1.0" stroke-linejoin="round" stroke-linecap="butt" d="m872.87665 542.0105l19.929138 0l0 -68.96063l39.858276 0l0 68.96063l19.929138 0l-39.858276 39.858276z" fill-rule="evenodd"/><path fill="#000000" d="m924.3683 495.08975l-4.984375 0q-0.140625 -0.96875 -0.5625 -1.71875q-0.40625 -0.765625 -1.078125 -1.296875q-0.65625 -0.53125 -1.515625 -0.8125q-0.859375 -0.28125 -1.859375 -0.28125q-1.796875 0 -3.140625 0.890625q-1.34375 0.890625 -2.078125 2.59375q-0.734375 1.6875 -0.734375 4.109375q0 2.5 0.734375 4.1875q0.75 1.6875 2.078125 2.5625q1.34375 0.859375 3.109375 0.859375q0.984375 0 1.828125 -0.265625q0.859375 -0.265625 1.515625 -0.765625q0.65625 -0.5 1.09375 -1.21875q0.4375 -0.734375 0.609375 -1.671875l4.984375 0.015625q-0.203125 1.609375 -0.96875 3.09375q-0.765625 1.484375 -2.0625 2.65625q-1.28125 1.15625 -3.0625 1.828125q-1.78125 0.671875 -4.015625 0.671875q-3.109375 0 -5.5625 -1.40625q-2.453125 -1.40625 -3.875 -4.078125q-1.40625 -2.671875 -1.40625 -6.46875q0 -3.796875 1.4375 -6.46875q1.4375 -2.671875 3.890625 -4.078125q2.453125 -1.40625 5.515625 -1.40625q2.03125 0 3.75 0.578125q1.734375 0.5625 3.078125 1.65625q1.34375 1.078125 2.1875 2.65625q0.84375 1.5625 1.09375 3.578125z" fill-rule="nonzero"/><path fill="#000000" d="m908.13257 548.2148l0 -17.453125l4.6875 0l0 3.046875l0.1875 0q0.46875 -1.625 1.59375 -2.453125q1.125 -0.84375 2.59375 -0.84375q0.359375 0 0.78125 0.046875q0.421875 0.046875 0.734375 0.125l0 4.296875q-0.328125 -0.109375 -0.9375 -0.1875q-0.59375 -0.078125 -1.09375 -0.078125q-1.078125 0 -1.921875 0.46875q-0.828125 0.453125 -1.3125 1.28125q-0.484375 0.8125 -0.484375 1.875l0 9.875l-4.828125 0z" fill-rule="nonzero"/></g></svg>